<?xml version="1.0" encoding="UTF-8"?>
<svg id="_레이어_2" data-name="레이어 2" xmlns="http://www.w3.org/2000/svg" xmlns:xlink="http://www.w3.org/1999/xlink" viewBox="0 0 1966.02 507.19">
  <defs>
    <style>
      .cls-1 {
        filter: url(#outer-glow-1);
      }

      .cls-2 {
        fill: #f4f4f4;
      }
    </style>
    <filter id="outer-glow-1" x="-4.89" y="-4.98" width="1976" height="517" filterUnits="userSpaceOnUse">
      <feOffset dx="0" dy="0"/>
      <feGaussianBlur result="blur" stdDeviation="1.42"/>
      <feFlood flood-color="#f1f2f2" flood-opacity=".5"/>
      <feComposite in2="blur" operator="in"/>
      <feComposite in="SourceGraphic"/>
    </filter>
  </defs>
  <g id="Layer_1" data-name="Layer 1">
    <g class="cls-1">
      <path class="cls-2" d="M920.66,277.21h.06c.59-.02,60.96,1.08,92.16-29.4,12.33-12.04,18.58-27.52,18.58-46.01s-6.25-33.97-18.58-46.01c-31.19-30.47-91.55-29.4-92.16-29.4-.66.04-61.03-1.07-92.22,29.4-12.33,12.04-18.58,27.52-18.58,46.01s6.25,33.97,18.58,46.01c31.2,30.47,91.56,29.41,92.16,29.4ZM874.29,251.02c-12-11.54-18.09-28.1-18.09-49.22s6.08-37.68,18.08-49.21c18.64-17.92,44.68-17.33,46.4-17.26,1.7-.06,27.75-.66,46.4,17.26,12,11.53,18.08,28.09,18.08,49.21s-6.08,37.69-18.09,49.22c-16.95,16.29-40.01,17.27-45.35,17.27h-2.17c-5.26,0-28.32-.99-45.27-17.27Z"/>
      <path class="cls-2" d="M1123.22,365.46c-6.37-8.69-13.77-24.51-12.86-50.45v-126.2c-.91-26.04,7.86-40.02,15.39-47.14,5.94-5.62,11.87-5.48,15.08-5.49.13,0,.27,0,.4,0v-1.05h-107.09v1.18c.11.02.23.03.36.04,30.51,3.61,30.51,40.4,30.51,52.48v126.25c.24,6.7-.1,13.25-1,19.39l-.61,4.12-1.92-3.7c-5.05-9.75-14.03-18.28-20.69-22.4-21.27-13.19-46.92-17.37-72.23-11.76-22.62,5.01-48.6,16.57-62.55,22.78l-3.45,1.53c-14.32,6.34-34.7,12.94-50.53,8.37-35.69-10.28-43.89-48.72-45.13-55.96h-4.77c-.38,22.9,1.97,36.13,9.82,55.83,6.5,16.32,16.54,27.49,33.58,37.33,24.19,14,51.35,5.24,69.88-4.56,14.74-7.81,24.87-16.9,35.59-26.53,5.87-5.27,11.94-10.72,19.1-16.29,19.31-15.01,48.98-12.42,63.52-.69,13.04,10.5,17.7,14.84,20.84,28.89.9,4.01.19,10.59-2.29,13.98-5.11,6.97-10.47,7.68-13.05,8.02-.13.02-.26.03-.4.05v1.37h97.87v-1.37c-.13-.02-.27-.04-.4-.05-2.58-.34-7.94-1.05-13.01-7.98Z"/>
      <path class="cls-2" d="M1482.6,188.83v131.42c.45,13.73-1.25,26-5.04,36.42-2.43,6.66-9.55,10.4-16.56,8.69-2.51-.62-5.25-1.51-8.25-2.69-16.58-6.48-31.78-17.84-43.95-32.85-12.85-15.84-31.57-49.81-42.06-93.41-4.37-18.18-8.43-38.99-5.35-55.41,5.98-31.92,48.66-42.72,51.46-43.39v-3.65h-177.33v3.65c2.86.68,45.47,11.43,51.46,43.39,3.08,16.44-.98,37.24-5.35,55.41-12.01,49.92-33.42,80.11-42.06,90.77-12.17,15.01-27.37,26.37-43.95,32.85-2.99,1.18-5.73,2.07-8.14,2.66-11.69,2.89-29.52-2.95-39.65-19.37l-3.86,3.87c1.36,2.3,21.23,34.96,56.99,36.75.88.12,19.51,2.38,41.54-11.15,36.49-22.4,53.19-72.88,60.78-111.28.1-.38,8.05-30.06,12.59-76.18,1.55-6.68,4.49-10.27,8.32-10.27s6.75,3.53,8.26,9.94c4.58,46.29,12.53,76.05,12.61,76.34,7.89,39.91,24.83,92,60.82,114.1,16.11,9.89,30.34,11.37,37.38,11.37,2.54,0,3.93-.19,3.95-.19,4.02-.2,7.93-.79,11.74-1.74,10.1-2.53,18.61-3.71,26.77-3.71h65.27v-3.47c-.28-.12-.72-.18-1.26-.26-2.44-.35-6.93-.99-11.35-7.52-5.79-8.55-12.52-24.12-11.69-49.76v-131.38c-.83-25.62,7.1-39.3,13.91-46.26,5.18-5.3,10.38-5.24,13.21-5.18.6.02,1.11.01,1.45-.04v-3.33h-101.2v3.34c.31.06.74.12,1.27.19,6.75.86,27.29,3.48,27.29,51.33Z"/>
      <path class="cls-2" d="M1930.36,174.11c-1.05-6.76-.07-18.31,2.81-23.64,2.43-4.49,5.95-8.24,10.46-11.14,3.57-2.3,9.39-3.55,16.99-3.33.65,0,1.16.01,1.53-.03v-2.01h-394.12l-.02,2.16c24.91,3.59,45.97,25.01,60.91,61.96.34.86.59,1.46.74,1.78h1.13c.84-1.4,12.69-20.89,27.91-36.53,12.11-12.43,27.55-19.84,43.5-20.86,17.7-1.14,36.07,2.34,44.63,8.43,10.37,7.38,15.17,18.66,13.17,30.96-2.77,17.07-28.44,48.91-70.55,74.29-20.07,12.09-45.06,27.12-80.46,22.67l-14.01-3.6-15.64-5.17c-3.05-1.54-4.87-2.71-5.45-3.1l-.74.43.08.1-3.01,4.99c1.43.43,9.45,3.08,17.45,10.71,7.98,7.6,17.49,21.81,17.49,46.4,0,17.67-4.34,30.79-12.89,39-7.59,7.29-16.46,8.38-18.95,8.38h-.03v4.51h364.27v-70.12h-4.65c-.5,1.38-4.92,13.04-16.05,24.22-10.78,10.84-30.3,23.45-62.01,21.94h-198.63l.36-1.63c3.66-16.7,1.45-36.59-6.55-59.11l-.59-1.66,1.76-.13c14.17-1.02,29.02-4.23,44.15-9.53,23.64-8.28,48.36-29.94,71.66-51.41l4.77-4.48c37.49-35.92,62.34-76.23,62.58-76.63,5.99-10.16,12.94-15.1,15.65-16.75l.4-.25.47.06c.34.05.77.08,1.32.13,6.92.55,27.98,2.24,27.98,33.17v81.48c.86,16.5-6.06,26.56-12.02,32.08-4.54,4.21-9.28,4.63-11.56,4.83-.59.05-1.05.09-1.35.17v2.1h99v-2.1c-.29-.07-.75-.12-1.31-.16-2.32-.21-7.07-.63-11.61-4.84-4.41-4.1-7.68-9.09-9.7-14.84-1.75-4.96-1.7-10.35-1.66-16.07v-1.19c.1-13.3,4.08-23.83,11.82-31.27,10.01-9.63,22.63-10.58,24.21-10.66v-4.6c-25.71-.05-32.85-12.08-35.66-30.11Z"/>
      <path class="cls-2" d="M450.46,361c-6.29-8.59-13.59-24.22-12.69-49.85v-116.44c-1.52-43.39,24.23-53.63,30.47-55.46v-1.26h-72.3v236.88h67.76v-1.59c-2.38-1.33-7.86-4.93-13.23-12.28Z"/>
      <path class="cls-2" d="M331.95,149.43c3.98,5.36,6.17,12.3,6.17,19.54v23.04c-.96,16.44-8.48,54.03-57.28,54.03-.34,0-.68,0-1.03,0v2.47c8.69.31,55.79,4.24,58.3,52.59v35.8c0,6.11-1.57,11.99-4.54,17.01-.77,1.3-1.61,2.63-2.52,4-6.51,9.85-13.92,14.56-16.81,16.13l-1.51.82h66.61v-236.88h-67.43v1.11c.17.01.34.02.53.04,4.08.3,12.57.92,19.51,10.3Z"/>
      <path class="cls-2" d="M206.33,285.82l-3-.59,1.81-2.41c41.18-54.85,68.61-116.6,68.88-117.21,6.94-16.37,15.22-24.13,17.81-26.29v-1.33H14.45v1.4c42.3,9.03,62.69,54.55,67.17,65.92.89-4.65,3.31-15.48,7.9-24.13.26-.5.55-1.08.86-1.73,2.9-5.95,8.31-17.02,27.1-25.93,4.32-1.78,22.98-4.48,38.4-3.77,7.81.37,14.87,1.84,20.97,4.34,5.41,2.23,9.76,4.95,12.93,8.08,11.66,11.52,17.07,29.1,14.83,48.24-3.38,28.93-24.68,58.42-69.05,95.59-24.13,20.21-61.28,42.64-101.17,34.7-17-3.38-28.89-11.29-34.41-15.65,5.34,8.04,20.39,27.27,46.52,35.39,24.62,7.64,52.85,3.86,83.91-11.26,24.61-11.99,42.12-24.49,69.47-59.54l1.15-1.47,1.53,1.09c17.67,12.56,39.06,33.28,40.65,60.63.67,11.63-2.56,20.68-4.52,24.98h73.26l-.56-1.98c-19.82-69.48-101.62-86.38-105.09-87.07Z"/>
      <path class="cls-2" d="M691.44,295.78c-19.68,8.79-30.09,23.68-31.82,45.53-.38,3.12-2.85,30.01,23.69,44.48l1.06-2.08-.13-.11c-1.9-1.4-18.5-14.22-19.57-34.12-.69-12.77,4.29-24.54,14.81-35.01,14.56-14.48,34.88-13.6,42.93-12.56,27.68,3.61,46.9,28.45,46.73,60.41-.18,35.4-19.46,63.88-55.75,82.38-30.55,15.57-76.1,16.6-113.32,2.59-17.66-6.65-40.36-19.56-56.5-45.01-11.43-18.02-19.56-42.33-20.28-75.16-.66-30.28,8.83-56.03,23.82-76.56,14.45-19.79,30.66-28.15,36.96-30.83,6.51-2.76,12.92-4.18,19.05-4.22h.31c12.56,0,21.58,4.64,29.21,15.02,2.04,2.78,3.82,5.91,5.29,9.3,5.12,11.81,7.39,34.14,8.39,51.34h4.04c1-17.18,3.26-39.5,8.39-51.34,10.73-24.77,54.6-27.32,74.5-27.11v-4.35c-20.01.19-63.77-2.34-74.5-27.1-4.24-9.79-7.01-29.1-8.23-57.42h-4.36c-1.22,28.31-3.98,47.62-8.22,57.41l-.22.49c-5.34,12-13.12,18.96-23.78,21.29-9.77,2.15-23.36-2.6-30.87-8.41-28.03-21.69-32.8-54.79-31.88-78.73,3.11-80.37,74.14-89.64,95.84-90.56,41.99-1.7,91.39,14.97,100.48,55.97,4.33,19.54.26,37.91-11.43,51.73-22.21,26.26-48.81,13.92-49.93,13.39h-.01s-2.31,3.02-2.31,3.02c9.07,5.53,20.08,6.93,31.83,4.03,15.72-3.87,30.64-14.97,38.96-28.97,8.25-14.92,11.44-40.3-.09-63.25-15.72-31.31-50.73-54.19-91.35-59.71C655.5.51,647.82,0,640.19,0c-38.85,0-76.1,13.23-100.94,36.62-22.48,21.17-34.21,49.64-33.91,82.31.99,41.92,19.74,78.16,48.95,94.56l2.16,1.21-2.06,1.38c-39.35,26.2-62.46,74.14-61.84,128.24.68,58.96,31.07,115.1,77.43,143.02,25.56,15.39,55.51,20.27,78.93,19.82,28.41-.55,62.58-8.77,87.47-28.26,31.2-22.94,53.34-64.04,55.13-102.31,1.34-28.7-8.51-53.41-28.51-71.46-18.73-16.33-47.5-20.1-71.56-9.35Z"/>
    </g>
  </g>
</svg>